<svg width="95" height="32" viewBox="0 0 95 32" fill="none" xmlns="http://www.w3.org/2000/svg">
<g clip-path="url(#clip0_173_110)">
<path d="M27.4937 0.123592C25.6568 0.359087 23.2548 1.01847 21.5828 1.74851L21.0176 1.984V4.83348V7.69474L21.8183 6.90584C22.7956 5.92853 23.3254 5.55174 24.3734 5.02188C27.788 3.31454 31.6855 3.55004 33.6048 5.58707C34.2877 6.3171 34.8529 7.36505 35.1473 8.51897L35.371 9.35498V5.22205L35.3827 1.08912L34.7116 0.84185C32.6039 0.0882683 29.884 -0.18255 27.4937 0.123592Z" fill="#893CF7"/>
<path d="M1 3.99728V7.5297L1.57696 7.08226C2.86041 6.06963 5.286 5.08055 7.6645 4.59779C9.26586 4.2681 11.5737 4.09147 12.657 4.19745L13.5401 4.29165L13.6107 12.2985C13.6696 19.9874 13.6814 20.3406 13.9169 21.2473C14.588 23.7435 15.8244 25.7923 17.8025 27.6645C19.6159 29.3836 21.5234 30.4315 24.3375 31.244C25.9153 31.7032 27.2694 31.9152 29.0827 31.9858C31.0373 32.0565 32.5327 31.8681 34.2401 31.3146L35.3822 30.9496L35.3704 26.8049V22.6602L35.1467 23.5198C34.3578 26.5341 32.2384 28.1355 29.0239 28.1355C25.88 28.1355 22.5713 26.1573 20.4754 23.0135C19.6394 21.7536 19.2391 20.7998 18.8858 19.222C18.6268 18.1034 18.615 17.8444 18.5797 9.26058L18.5326 0.464859H9.7604H1V3.99728Z" fill="#893CF7"/>
<path d="M1.01177 26.2628L1 30.4546L2.68379 30.8196C5.53327 31.4437 5.89829 31.4908 8.18259 31.479C10.0312 31.4673 10.5022 31.4319 11.3029 31.2082C12.551 30.8667 14.223 30.0425 14.9413 29.4067L15.5065 28.9004L15.0473 28.3705C14.3054 27.5109 13.8698 26.9222 13.3281 26.0391L12.8101 25.2031L12.6217 25.5446C12.2566 26.1569 11.0438 27.1577 10.3727 27.4167C9.00682 27.9231 7.05221 27.9348 5.62747 27.4285C3.48447 26.6749 1.78891 24.8381 1.16485 22.6127C1.0471 22.1417 1.02355 22.6598 1.01177 26.2628Z" fill="#893CF7"/>
</g>
<defs>
<clipPath id="clip0_173_110">
<rect width="95" height="32" fill="white"/>
</clipPath>
</defs>
</svg>
